<svg width="192" height="36" viewBox="0 0 192 36" fill="none" xmlns="http://www.w3.org/2000/svg">
<path fill-rule="evenodd" clip-rule="evenodd" d="M138.309 29V16.2559H141.458V13.1504H138.309V12.0811C138.309 10.4502 139.266 9.63477 141.18 9.63477C141.902 9.63477 142.684 9.68359 143.523 9.78125V29H147.771V6.66113C144.461 6.34863 142.068 6.19238 140.594 6.19238C138.523 6.19238 136.922 6.68799 135.789 7.6792C134.656 8.67041 134.08 10.084 134.061 11.9199V13.1504H131.702V16.2559H134.061V29H138.309ZM61.6387 29.293C64.002 29.293 65.8818 28.7681 67.2783 27.7183C68.6748 26.6685 69.373 25.2207 69.373 23.375C69.373 21.7148 68.8018 20.3281 67.6592 19.2148C66.5166 18.1016 64.6953 17.1689 62.1953 16.417C60.8379 16.0068 59.8101 15.5674 59.1118 15.0986C58.4136 14.6299 58.0645 14.0488 58.0645 13.3555C58.0645 12.6133 58.3623 12.0151 58.958 11.561C59.5537 11.1069 60.3887 10.8799 61.4629 10.8799C62.5762 10.8799 63.4404 11.1509 64.0557 11.6929C64.6709 12.2349 64.9785 12.9941 64.9785 13.9707H69.373C69.373 12.6914 69.0435 11.5488 68.3843 10.543C67.7251 9.53711 66.7998 8.7583 65.6084 8.20654C64.417 7.65479 63.0596 7.37891 61.5361 7.37891C60.0225 7.37891 58.6577 7.63281 57.4419 8.14062C56.2261 8.64844 55.2935 9.354 54.644 10.2573C53.9946 11.1606 53.6699 12.1885 53.6699 13.3408C53.6699 15.5576 54.8809 17.3203 57.3027 18.6289C58.1914 19.1074 59.3975 19.5933 60.9209 20.0864C62.4443 20.5796 63.499 21.0483 64.085 21.4927C64.6709 21.937 64.9639 22.5742 64.9639 23.4043C64.9639 24.166 64.6709 24.7593 64.085 25.1841C63.499 25.6089 62.6836 25.8213 61.6387 25.8213C58.8262 25.8213 57.4199 24.6445 57.4199 22.291H53.0107C53.0107 23.668 53.3647 24.8789 54.0728 25.9238C54.7808 26.9688 55.8086 27.7915 57.1562 28.3921C58.5039 28.9927 59.998 29.293 61.6387 29.293ZM77.2246 29.293C79.0703 29.293 80.5156 28.6582 81.5605 27.3887L81.6777 29H85.6621V13.1504H81.4141V24.3711C80.877 25.3672 79.8906 25.8652 78.4551 25.8652C76.9512 25.8652 76.1992 25.04 76.1992 23.3896V13.1504H71.9658V23.5361C71.9854 25.4209 72.4419 26.8516 73.3354 27.8281C74.229 28.8047 75.5254 29.293 77.2246 29.293ZM93.0889 27.623V35.0938H88.8555V13.1504H92.7812L92.9277 14.7031C93.9531 13.4727 95.291 12.8574 96.9414 12.8574C98.8945 12.8574 100.413 13.5801 101.497 15.0254C102.581 16.4707 103.123 18.4629 103.123 21.002V21.2217C103.123 23.6631 102.569 25.6187 101.46 27.0884C100.352 28.5581 98.8555 29.293 96.9707 29.293C95.3691 29.293 94.0752 28.7363 93.0889 27.623ZM95.8574 25.8799C94.5293 25.8799 93.6064 25.3574 93.0889 24.3125V17.8232C93.5869 16.8076 94.5 16.2998 95.8281 16.2998C96.8242 16.2998 97.5835 16.7002 98.106 17.501C98.6284 18.3018 98.8896 19.4395 98.8896 20.9141C98.8896 24.2246 97.8789 25.8799 95.8574 25.8799ZM116.644 28.5386C115.56 29.0415 114.358 29.293 113.04 29.293C110.716 29.293 108.824 28.5801 107.364 27.1543C105.904 25.7285 105.174 23.8291 105.174 21.4561V21.0459C105.174 19.4541 105.481 18.0308 106.097 16.7759C106.712 15.521 107.583 14.5542 108.711 13.8755C109.839 13.1968 111.126 12.8574 112.571 12.8574C114.739 12.8574 116.446 13.541 117.691 14.9082C118.936 16.2754 119.559 18.2139 119.559 20.7236V22.4521H109.466C109.603 23.4873 110.015 24.3174 110.704 24.9424C111.392 25.5674 112.264 25.8799 113.318 25.8799C114.949 25.8799 116.224 25.2891 117.142 24.1074L119.222 26.4365C118.587 27.335 117.728 28.0356 116.644 28.5386ZM115.398 19.5664H109.51C109.656 18.5117 109.991 17.7012 110.513 17.1348C111.036 16.5684 111.717 16.2852 112.557 16.2852C113.455 16.2852 114.148 16.5415 114.637 17.0542C115.125 17.5669 115.379 18.292 115.398 19.2295V19.5664ZM126.194 18.6289V29H121.961V13.1504H125.96L126.077 15.04C126.927 13.585 128.104 12.8574 129.607 12.8574C130.076 12.8574 130.516 12.9209 130.926 13.0479L130.867 17.1201C130.291 17.042 129.783 17.0029 129.344 17.0029C127.742 17.0029 126.692 17.5449 126.194 18.6289ZM160.779 27.3887C159.734 28.6582 158.289 29.293 156.443 29.293C154.744 29.293 153.448 28.8047 152.554 27.8281C151.661 26.8516 151.204 25.4209 151.185 23.5361V13.1504H155.418V23.3896C155.418 25.04 156.17 25.8652 157.674 25.8652C159.109 25.8652 160.096 25.3672 160.633 24.3711V13.1504H164.881V29H160.896L160.779 27.3887ZM170.418 11.2461C171.131 11.2461 171.705 11.041 172.139 10.6309C172.574 10.2207 172.791 9.69336 172.791 9.04883C172.791 8.41406 172.576 7.8916 172.146 7.48145C171.717 7.07129 171.141 6.86621 170.418 6.86621C169.686 6.86621 169.107 7.07129 168.682 7.48145C168.257 7.8916 168.045 8.41406 168.045 9.04883C168.045 9.69336 168.262 10.2207 168.697 10.6309C169.131 11.041 169.705 11.2461 170.418 11.2461ZM172.542 13.1504V29H168.294V13.1504H172.542ZM181.551 29.293C183.211 29.293 184.568 28.6338 185.623 27.3154L185.828 29H189.651V6.5H185.403V14.5859C184.397 13.4336 183.123 12.8574 181.58 12.8574C179.656 12.8574 178.14 13.5898 177.032 15.0547C175.923 16.5195 175.369 18.4873 175.369 20.958C175.369 23.5752 175.933 25.6187 177.061 27.0884C178.189 28.5581 179.686 29.293 181.551 29.293ZM180.379 24.6787C180.896 25.4697 181.648 25.8652 182.635 25.8652C183.943 25.8652 184.866 25.3135 185.403 24.21V17.9551C184.876 16.8516 183.963 16.2998 182.664 16.2998C180.623 16.2998 179.603 17.9551 179.603 21.2656C179.603 22.75 179.861 23.8877 180.379 24.6787Z" fill="black"/>
<path fill-rule="evenodd" clip-rule="evenodd" d="M24.5 29C32.5081 29 39 22.5081 39 14.5C39 6.49187 32.5081 0 24.5 0C16.4919 0 10 6.49187 10 14.5C10 22.5081 16.4919 29 24.5 29Z" fill="#7B2464"/>
<rect y="7" width="29" height="29" fill="#FFBCED"/>
</svg>
